<?xml version="1.0" encoding="UTF-8" standalone="no"?>
<!-- Generator: Adobe Illustrator 16.0.0, SVG Export Plug-In . SVG Version: 6.00 Build 0)  -->

<svg
   xmlns:dc="http://purl.org/dc/elements/1.1/"
   xmlns:cc="http://creativecommons.org/ns#"
   xmlns:rdf="http://www.w3.org/1999/02/22-rdf-syntax-ns#"
   xmlns:svg="http://www.w3.org/2000/svg"
   xmlns="http://www.w3.org/2000/svg"
   xmlns:sodipodi="http://sodipodi.sourceforge.net/DTD/sodipodi-0.dtd"
   xmlns:inkscape="http://www.inkscape.org/namespaces/inkscape"
   version="1.1"
   id="Layer_1"
   x="0px"
   y="0px"
   width="612px"
   height="792px"
   viewBox="0 0 612 792"
   enable-background="new 0 0 612 792"
   xml:space="preserve"
   inkscape:version="0.48.4 r9939"
   sodipodi:docname="_logo.svg"><metadata
     id="metadata3588"><rdf:RDF><cc:Work
         rdf:about=""><dc:format>image/svg+xml</dc:format><dc:type
           rdf:resource="http://purl.org/dc/dcmitype/StillImage" /><dc:title></dc:title></cc:Work></rdf:RDF></metadata><defs
     id="defs3586" /><sodipodi:namedview
     pagecolor="#ffffff"
     bordercolor="#666666"
     borderopacity="1"
     objecttolerance="10"
     gridtolerance="10"
     guidetolerance="10"
     inkscape:pageopacity="0"
     inkscape:pageshadow="2"
     inkscape:window-width="1920"
     inkscape:window-height="1178"
     id="namedview3584"
     showgrid="false"
     inkscape:zoom="1.7338401"
     inkscape:cx="109.06223"
     inkscape:cy="673.38546"
     inkscape:window-x="0"
     inkscape:window-y="0"
     inkscape:window-maximized="1"
     inkscape:current-layer="Layer_1" /><path
     d="M431.749,363l-4.374-0.625l-2.751,4.364l-9.468-2.859l-0.687,1.602l2.28,3.393l7.375,2.625l-4.5,0.5l-2.566,2.283  l0.424,1.586l7.642,0.006l0.017,3.259v3.373l-9.513-4.115l-13.765,13.156l-0.066,16.667l7.354,10.524l11.99-2.563v3.306h13.244  l1.365-52.742L431.749,363z M424.438,398.639l-5.436,2.625l-3.929-2.33l-1.47-5.81l5.667-4.544l5.87,4.207L424.438,398.639z"
     id="path3418" /><path
     d="M353.342,385.274l1.794-2.816l2.804,0.172l4.673-3.38l-7.298-3.907l5.541-6.197l-4.521-2.896l-3.142,1.645l-9.634-5.414  l-21.149,3.096l0.864,5.418l5.402-0.861l0.215,43.859h-6.124v5.487l30.228-0.258l10.204-8.468l1.761-15.693L353.342,385.274z   M350.609,402.455l-11.1,0.877v-11.715l10.965,1.079l2.328,3.913L350.609,402.455z"
     id="path3420" /><path
     d="M279.406,379.202h-7.77l-0.477,0.375l-0.326-1.587l2.996-2.228l-3.663-1.4l2.334-1.767h2.289l-2.623-3.345h-2.916  l-2.25-2.896h-5.75l-4.255,4.271v8.577v50.492h14.641v-13.518l4.048,3.048l14.978-6.177v-21.843L279.406,379.202z M275.941,398.777  l-4.305,2.487l-4.007-2.42l-1.391-5.72l5.398-4.545l6.14,4.207L275.941,398.777z"
     id="path3422" /><path
     d="M243.176,379.201h-7.747L234,369.24l-5.875-2.99l-5.036,0.552l-2.423,3.234l-4.833,0.78l4.417,3.059l-4.417,1.566  l5.042,3.76h-0.11v50.492h14.641v-13.518l4.048,3.048l14.978-6.177v-21.842L243.176,379.201z M240.583,398.912l-5.177,2.353  l-3.822-2.209l-1.576-5.931l5.398-4.545l6.139,4.208L240.583,398.912z"
     id="path3424" /><polygon
     points="192.833,369.458 186.667,368.625 188.257,366.019 192.208,362.875 186.667,362.417 184.958,364.125 181.5,362.417   178.417,363.083 173.497,367.81 174.083,373.583 170.076,382.156 162.446,362.212 148.683,362.078 148.683,367.564 153.734,367.564   163.725,395.745 155.164,414.062 150.472,411.986 148.304,417.026 171.997,427.506 174.166,422.465 168.726,420.06 186.958,372.667   "
     id="polygon3426" /><polygon
     points="446.73,379.101 454.084,379.39 464.617,388.606 459.617,396.788 451.423,390.044 448.521,393.53 464.191,406.727   460.461,416.219 452.566,419.617 438.297,418.604 437.297,405 448.024,405.201 437.622,396.407 438.061,388.624 "
     id="polygon3428" /><polygon
     points="180.151,370.182 179.964,371.02 180.338,371.661 181.109,371.974 181.693,371.341 181.609,370.849 180.693,370.036   "
     id="polygon3430" /><polygon
     points="310.296,379.134 305.164,397.238 299.905,379.134 289.245,379.134 299.446,410.238 292.375,427.693   306.652,431.693 320.551,379.134 "
     id="polygon3432" /><polygon
     fill="#FFFFFF"
     points="338.625,378.283 343.069,381.882 350.625,379.193 350.625,372.215 345.625,369.438 339.514,370.969   "
     id="polygon3434" /><polygon
     points="341.5,376.913 344,378.938 348.25,377.425 348.25,373.5 345.438,371.938 342,372.799 "
     id="polygon3436" /><polygon
     fill="#FFFFFF"
     points="223.09,371.974 226.167,375.334 230.167,374.25 230.59,370.143 227.465,368.407 224.334,368.759 "
     id="polygon3438" /><polygon
     fill="#FFFFFF"
     points="262.164,374.654 265.33,374.919 267.962,371.324 265.783,368.118 262.617,368.403 260.288,371.017   "
     id="polygon3440" /><polygon
     fill="#FFFFFF"
     points="177.917,368.123 180.555,370.841 183.931,369.472 184.824,366.492 182.226,364.268 178.928,364.934   "
     id="polygon3442" /><polygon
     fill="#FFFFFF"
     points="428.649,372.239 432.75,371.344 434,367.691 431.375,365.163 428.25,365.163 425.992,369.238 "
     id="polygon3444" /><polygon
     points="179.646,365.818 179.321,367.554 180.502,368.797 182.356,368.179 182.356,366.324 181.371,365.425 "
     id="polygon3446" /><polygon
     points="225.667,370.073 225.167,371.87 226.25,373.129 228.25,372.667 228.583,371.005 227.652,369.595 "
     id="polygon3448" /><polygon
     points="263.406,369.468 265.583,369.419 266.137,370.904 265.356,372.647 263.18,372.647 262.4,370.66 "
     id="polygon3450" /><path
     d="M216.949,419.449h-14.641v-3.274l-4.048,3.05l-14.978-6.179v-21.842l11.256-12.002h7.77l5.398,4.243v-4.243h9.243V419.449z   M202.308,388.58l-6.139,4.207l1.751,6.902l4.388,1.576l4.7-2.072l0.698-6.069L202.308,388.58z"
     id="path3452" /><polygon
     points="428.141,369.122 429.125,366.875 430.932,366.875 431.875,368.691 430.932,370.5 429.25,370.5 "
     id="polygon3454" /><polygon
     points="390.112,379.134 390.584,384.262 399.761,378.392 399.761,397.216 391.575,397.857 394.394,419.48 381.476,419.48   381.611,379.134 "
     id="polygon3456" /><path
     d="M376.315,366.122l3.542,5.914l-3.879,5.108h-5.77l-3.542-4.737l3.678-6.251L376.315,366.122z M368.186,380.214h9.918v39.267  h-13.918L368.186,380.214z"
     id="path3458" /><path
     d="m 424.17828,308.42178 v -3.07 l -11.43,2.444 -7.916,-11.329 0.071,-17.407 14.549,-13.909 8.726,3.775 v -1.852 l -0.011,-2.259 -7.415,-0.006 -0.781,-2.923 3.265,-2.904 0.5,-0.056 -3.595,-1.279 -2.768,-4.118 1.255,-2.924 9.594,2.897 2.69,-4.268 5.328,0.761 4.559,4.261 -1.402,54.166 h -15.219 z m -1.091,-20.35 4.46,-2.154 0.567,-4.721 -4.772,-3.421 -4.574,3.668 1.21,4.783 3.109,1.845 z"
     id="path3460"
     inkscape:export-filename="/home/davidphilipegil/Dropbox/projects/navitude/yappy_birds/COMMON/website/logo-3.png"
     inkscape:export-xdpi="90"
     inkscape:export-ydpi="90"
     inkscape:connector-curvature="0"
     style="fill:#a5a5a5" /><path
     d="m 431.41228,250.31578 4.375,0.625 4,3.739 -1.365,52.741 h -13.243 v -3.305 l -11.991,2.563 -7.354,-10.525 0.066,-16.666 13.764,-13.156 9.515,4.115 v -3.373 l -0.017,-3.259 -7.643,-0.006 -0.424,-1.586 2.566,-2.283 4.5,-0.5 -7.375,-2.625 -2.28,-3.393 0.688,-1.602 9.468,2.859 2.75,-4.363 z m -8.374,38.888 5.437,-2.625 0.704,-5.852 -5.871,-4.207 -5.667,4.544 1.47,5.81 3.927,2.33 m 7.373,-41.052 -0.69,1.098 -1.938,3.075 -8.01,-2.419 -1.711,-0.516 -0.705,1.642 -0.688,1.602 -0.43,1.001 0.607,0.903 2.281,3.393 0.367,0.548 0.621,0.221 1.38,0.491 -1.729,1.539 -0.921,0.819 0.317,1.191 0.361,1.354 -0.283,-0.123 -0.959,0.917 -13.764,13.157 -0.614,0.587 -0.003,0.85 -0.067,16.665 -0.004,0.634 0.363,0.521 7.354,10.525 0.76,1.088 1.298,-0.277 9.573,-2.047 v 0.832 2 h 2 13.243 1.948 l 0.051,-1.947 1.365,-52.742 0.023,-0.899 -0.657,-0.614 -4,-3.739 -0.459,-0.43 -0.624,-0.089 -4.375,-0.625 -1.281,-0.186 z m -3.232,19.252 -3.683,-1.593 3.676,0.003 0.007,1.27 v 0.32 z m -7.285,14.417 3.48,-2.791 3.677,2.634 -0.433,3.591 -3.483,1.682 -2.29,-1.359 -0.951,-3.757 z"
     id="path3462"
     inkscape:export-filename="/home/davidphilipegil/Dropbox/projects/navitude/yappy_birds/COMMON/website/logo-3.png"
     inkscape:export-xdpi="90"
     inkscape:export-ydpi="90"
     inkscape:connector-curvature="0"
     style="fill:#a5a5a5" /><path
     d="m 325.80428,300.93478 h 6.119 l -0.205,-41.688 -5.237,0.835 -1.182,-7.406 22.489,-3.293 9.459,5.316 3.173,-1.663 6.001,3.843 -5.477,6.125 7.587,4.061 -6.259,4.526 -2.573,-0.157 -1.008,1.581 11.358,9.569 -1.865,16.626 -10.789,8.952 -31.592,0.27 v -7.497 z m 18.743,-10.744 9.387,-0.742 1.801,-4.8 -1.824,-3.066 -9.363,-0.922 v 9.53 z"
     id="path3464"
     inkscape:export-filename="/home/davidphilipegil/Dropbox/projects/navitude/yappy_birds/COMMON/website/logo-3.png"
     inkscape:export-xdpi="90"
     inkscape:export-ydpi="90"
     inkscape:connector-curvature="0"
     style="fill:#a5a5a5" /><path
     d="m 347.59628,250.42178 9.635,5.415 3.14,-1.646 4.521,2.896 -5.54,6.197 7.299,3.907 -4.674,3.38 -2.804,-0.172 -1.795,2.816 11.618,9.788 -1.761,15.694 -10.204,8.467 -30.228,0.259 v -5.487 h 6.124 l -0.216,-43.86 -5.401,0.861 -0.863,-5.418 21.149,-3.097 z m -4.049,40.85 11.1,-0.877 2.192,-5.846 -2.328,-3.913 -10.964,-1.079 v 11.715 m 4.434,-42.928 -0.676,0.099 -21.148,3.096 -2.004,0.294 0.318,2 0.864,5.418 0.314,1.975 1.975,-0.314 3.099,-0.494 0.194,39.517 h -4.114 -2 v 2 5.487 2.017 l 2.018,-0.017 30.227,-0.259 0.713,-0.006 0.548,-0.455 10.203,-8.467 0.621,-0.515 0.09,-0.802 1.761,-15.693 0.119,-1.063 -0.818,-0.69 -10.278,-8.66 0.22,-0.346 1.628,0.1 0.716,0.044 0.58,-0.42 4.673,-3.38 2.591,-1.874 -2.819,-1.51 -5.056,-2.706 3.845,-4.301 1.565,-1.75 -1.978,-1.267 -4.521,-2.896 -0.979,-0.627 -1.028,0.539 -2.18,1.142 -8.688,-4.883 -0.595,-0.333 z m -2.434,40.764 v -7.344 l 7.762,0.764 1.32,2.218 -1.408,3.755 -7.674,0.607 z"
     id="path3466"
     inkscape:export-filename="/home/davidphilipegil/Dropbox/projects/navitude/yappy_birds/COMMON/website/logo-3.png"
     inkscape:export-xdpi="90"
     inkscape:export-ydpi="90"
     inkscape:connector-curvature="0"
     style="fill:#a5a5a5" /><path
     d="m 260.03328,318.63378 v -60.482 l 4.839,-4.858 h 6.655 l 2.25,2.896 h 2.914 l 4.191,5.345 h -4.009 l -0.628,0.477 3.679,1.406 -3.663,2.724 h 7.616 l 11.823,12.607 v 22.907 l -16.124,6.649 -2.902,-2.185 v 12.514 h -16.641 z m 15.651,-30.591 3.453,-1.994 1.504,-4.912 -4.906,-3.362 -4.342,3.655 1.146,4.713 3.145,1.9 z"
     id="path3468"
     inkscape:export-filename="/home/davidphilipegil/Dropbox/projects/navitude/yappy_birds/COMMON/website/logo-3.png"
     inkscape:export-xdpi="90"
     inkscape:export-ydpi="90"
     inkscape:connector-curvature="0"
     style="fill:#a5a5a5" /><path
     d="m 271.03728,254.29478 2.25,2.896 h 2.917 l 2.623,3.345 h -2.29 l -2.333,1.767 3.662,1.4 -2.995,2.227 0.326,1.588 0.477,-0.375 h 7.77 l 11.256,12.002 -0.001,21.842 -14.977,6.177 -4.048,-3.048 v 13.518 h -14.641 v -50.492 -8.577 l 4.254,-4.271 h 5.75 z m 4.637,34.909 4.305,-2.486 1.834,-5.99 -6.139,-4.207 -5.398,4.544 1.391,5.72 4.007,2.419 m -3.658,-36.909 h -0.979 -5.75 -0.83 l -0.587,0.588 -4.254,4.272 -0.583,0.585 v 0.826 8.577 50.491 2 h 2 14.641 2 v -2 -9.508 l 0.845,0.635 0.911,0.687 1.054,-0.435 14.978,-6.178 1.237,-0.51 v -1.339 l 0.001,-21.842 v -0.791 l -0.541,-0.577 -11.256,-12.002 -0.593,-0.632 h -0.866 -4.162 l 2.7,-2.008 -1.567,-0.599 h 2.521 l -2.535,-3.234 -2.623,-3.345 -0.601,-0.766 h -0.973 -1.938 l -1.649,-2.123 -0.601,-0.772 z m 0.496,29.502 3.286,-2.766 3.673,2.516 -1.174,3.833 -2.601,1.502 -2.282,-1.378 -0.902,-3.707 z"
     id="path3470"
     inkscape:export-filename="/home/davidphilipegil/Dropbox/projects/navitude/yappy_birds/COMMON/website/logo-3.png"
     inkscape:export-xdpi="90"
     inkscape:export-ydpi="90"
     inkscape:connector-curvature="0"
     style="fill:#a5a5a5" /><path
     d="m 223.80328,318.63378 v -51.072 l -6.03,-4.497 4.34,-1.539 -4.852,-3.361 6.885,-1.111 2.441,-3.258 5.763,-0.632 6.604,3.36 1.38,9.618 h 7.313 l 11.823,12.606 v 22.908 l -16.124,6.649 -2.902,-2.185 v 12.514 h -16.641 z m 15.695,-30.553 4.218,-1.916 0.78,-4.969 -4.991,-3.421 -4.331,3.646 1.307,4.916 3.017,1.744 z"
     id="path3472"
     inkscape:export-filename="/home/davidphilipegil/Dropbox/projects/navitude/yappy_birds/COMMON/website/logo-3.png"
     inkscape:export-xdpi="90"
     inkscape:export-ydpi="90"
     inkscape:connector-curvature="0"
     style="fill:#a5a5a5" /><path
     d="m 232.16228,254.19078 5.875,2.99 1.429,9.962 h 7.747 l 11.256,12.002 v 21.842 l -14.978,6.177 -4.048,-3.048 v 13.518 h -14.641 v -50.491 h 0.11 l -5.042,-3.761 4.417,-1.566 -4.417,-3.059 4.834,-0.78 2.423,-3.234 5.035,-0.552 z m 7.281,35.013 5.177,-2.352 0.963,-6.125 -6.14,-4.207 -5.398,4.544 1.577,5.931 3.821,2.209 m -6.906,-37.067 -0.593,0.065 -5.035,0.552 -0.863,0.095 -0.52,0.694 -1.939,2.587 -4.035,0.652 -4.903,0.791 4.083,2.828 1.205,0.834 -0.735,0.261 -3.527,1.251 2.999,2.238 4.128,3.078 v 49.571 2 h 2 14.641 2 v -2 -9.508 l 0.845,0.635 0.911,0.687 1.055,-0.435 14.977,-6.178 1.238,-0.51 v -1.339 -21.842 -0.791 l -0.541,-0.577 -11.256,-12.002 -0.593,-0.632 h -0.866 -6.013 l -1.183,-8.246 -0.148,-1.028 -0.925,-0.47 -5.875,-2.99 -0.532,-0.271 z m 3.767,29.641 3.264,-2.747 3.843,2.633 -0.599,3.814 -3.259,1.48 -2.212,-1.279 -1.037,-3.901 z"
     id="path3474"
     inkscape:export-filename="/home/davidphilipegil/Dropbox/projects/navitude/yappy_birds/COMMON/website/logo-3.png"
     inkscape:export-xdpi="90"
     inkscape:export-ydpi="90"
     inkscape:connector-curvature="0"
     style="fill:#a5a5a5" /><polygon
     points="149.953,229.969 154.673,232.057 162.645,214.999 153.028,187.871 147.683,187.871 147.683,180.374 163.137,180.525 170.168,198.904 173.06,192.715 172.453,186.732 177.928,181.472 181.63,180.672 184.758,182.217 186.287,180.688 194.806,181.393 189.018,185.996 188.317,187.146 195.987,188.181 187.76,192.675 170.001,238.838 175.475,241.258 172.517,248.135 146.995,236.848 "
     id="polygon3476"
     inkscape:export-filename="/home/davidphilipegil/Dropbox/projects/navitude/yappy_birds/COMMON/website/logo-3.png"
     inkscape:export-xdpi="90"
     inkscape:export-ydpi="90"
     transform="translate(4.0372812,68.63378)"
     style="fill:#a5a5a5" /><path
     d="m 152.72128,250.01878 13.763,0.134 7.63,19.944 4.007,-8.574 -0.586,-5.772 4.919,-4.727 3.084,-0.667 3.458,1.709 1.708,-1.709 5.542,0.459 -3.951,3.143 -1.591,2.607 6.167,0.833 -5.875,3.208 -18.232,47.393 5.439,2.406 -2.168,5.04 -23.693,-10.479 2.168,-5.039 4.692,2.074 8.56,-18.315 -9.99,-28.181 h -5.051 v -5.487 z m -2,-2.02 v 2.02 5.486 2 h 2 3.638 l 9.244,26.077 -7.384,15.798 -2.9,-1.282 -1.848,-0.818 -0.798,1.856 -2.168,5.041 -0.782,1.818 1.81,0.801 23.693,10.479 1.848,0.818 0.799,-1.856 2.167,-5.041 0.783,-1.817 -1.811,-0.802 -3.697,-1.635 17.284,-44.931 5.23,-2.857 5.35,-2.921 -6.04,-0.816 -2.962,-0.4 3.314,-2.636 3.95,-3.142 -5.03,-0.416 -5.542,-0.459 -0.924,-0.076 -0.655,0.655 -0.694,0.694 -2.173,-1.073 -0.626,-0.309 -0.682,0.148 -3.083,0.666 -0.555,0.12 -0.408,0.393 -4.92,4.726 -0.702,0.675 0.098,0.97 0.53,5.223 -1.778,3.804 -5.945,-15.541 -0.487,-1.272 -1.361,-0.014 -13.763,-0.134 -2.02,-0.02 z"
     id="path3478"
     inkscape:export-filename="/home/davidphilipegil/Dropbox/projects/navitude/yappy_birds/COMMON/website/logo-3.png"
     inkscape:export-xdpi="90"
     inkscape:export-ydpi="90"
     inkscape:connector-curvature="0"
     style="fill:#a5a5a5" /><polygon
     points="436.219,223.285 445.23,223.455 436.596,216.155 437.082,207.519 446.305,197.39 454.477,197.711 465.91,207.716 459.87,217.597 451.555,210.756 449.927,212.712 465.385,225.73 461.238,236.279 452.738,239.938 437.363,238.847 "
     id="polygon3480"
     inkscape:export-filename="/home/davidphilipegil/Dropbox/projects/navitude/yappy_birds/COMMON/website/logo-3.png"
     inkscape:export-xdpi="90"
     inkscape:export-ydpi="90"
     transform="translate(4.0372812,68.63378)"
     style="fill:#a5a5a5" /><path
     d="m 450.76728,267.04078 7.354,0.289 10.532,9.217 -5,8.181 -8.194,-6.743 -2.901,3.485 15.669,13.197 -3.729,9.492 -7.895,3.397 -14.27,-1.012 -1,-13.604 10.728,0.201 -10.402,-8.795 0.438,-7.783 8.67,-9.522 z m -0.851,-2.035 -0.627,0.689 -8.671,9.522 -0.478,0.525 -0.04,0.709 -0.438,7.783 -0.056,0.996 0.761,0.644 6.106,5.162 -5.102,-0.096 -2.193,-0.041 0.161,2.187 1,13.604 0.126,1.727 1.727,0.123 14.27,1.012 0.485,0.034 0.446,-0.192 7.894,-3.397 0.767,-0.33 0.305,-0.776 3.731,-9.49 0.524,-1.336 -1.098,-0.926 -14.149,-11.917 0.356,-0.428 6.66,5.479 1.776,1.461 1.2,-1.963 5,-8.181 0.879,-1.438 -1.268,-1.11 -10.533,-9.217 -0.532,-0.466 -0.707,-0.028 -7.354,-0.289 -0.928,-0.036 z"
     id="path3482"
     inkscape:export-filename="/home/davidphilipegil/Dropbox/projects/navitude/yappy_birds/COMMON/website/logo-3.png"
     inkscape:export-xdpi="90"
     inkscape:export-ydpi="90"
     inkscape:connector-curvature="0"
     style="fill:#a5a5a5" /><polygon
     points="298.382,229.51 287.864,197.44 300.656,197.44 305.153,212.919 309.54,197.44 321.851,197.44 307.36,252.237 291.028,247.661 "
     id="polygon3484"
     inkscape:export-filename="/home/davidphilipegil/Dropbox/projects/navitude/yappy_birds/COMMON/website/logo-3.png"
     inkscape:export-xdpi="90"
     inkscape:export-ydpi="90"
     transform="translate(4.0372812,68.63378)"
     style="fill:#a5a5a5" /><path
     d="m 324.58828,267.07378 -13.899,52.56 -14.277,-4 7.071,-17.455 -10.201,-31.104 h 10.66 l 5.259,18.104 5.132,-18.104 h 10.255 z m 2.598,-2 h -2.599 -10.255 -1.512 l -0.412,1.455 -3.231,11.399 -3.315,-11.412 -0.419,-1.442 h -1.502 -10.66 -2.761 l 0.861,2.623 9.973,30.41 -6.797,16.776 -0.84,2.072 2.154,0.604 14.278,4 1.954,0.548 0.52,-1.962 13.899,-52.56 0.664,-2.511 z"
     id="path3486"
     inkscape:export-filename="/home/davidphilipegil/Dropbox/projects/navitude/yappy_birds/COMMON/website/logo-3.png"
     inkscape:export-xdpi="90"
     inkscape:export-ydpi="90"
     inkscape:connector-curvature="0"
     style="fill:#a5a5a5" /><path
     d="m 205.34528,308.38878 v -2.269 l -2.902,2.186 -16.124,-6.65 v -22.907 l 11.822,-12.606 h 8.549 l 4.053,3.184 v -3.184 h 11.243 v 42.246 h -16.641 z m 0.962,-20.261 3.81,-1.679 0.571,-4.966 -4.405,-3.709 -4.937,3.383 1.449,5.711 3.512,1.26 z"
     id="path3488"
     inkscape:export-filename="/home/davidphilipegil/Dropbox/projects/navitude/yappy_birds/COMMON/website/logo-3.png"
     inkscape:export-xdpi="90"
     inkscape:export-ydpi="90"
     inkscape:connector-curvature="0"
     style="fill:#a5a5a5" /><path
     d="m 206.34528,267.14278 5.398,4.243 v -4.243 h 9.243 v 40.245 h -14.641 v -3.272 l -4.048,3.048 -14.978,-6.177 v -21.842 l 11.256,-12.002 h 7.77 z m 0,22.061 4.7,-2.07 0.698,-6.069 -5.398,-4.544 -6.14,4.207 1.751,6.902 4.389,1.574 m 0.691,-24.061 h -0.691 -7.77 -0.867 l -0.592,0.631 -11.256,12.003 -0.541,0.577 v 0.791 21.842 1.339 l 1.237,0.51 14.978,6.178 1.055,0.435 0.911,-0.687 0.845,-0.635 v 1.262 h 2 14.641 2 v -2 -40.245 -2 h -2 -9.243 -2 v 2 0.127 l -2.163,-1.7 -0.544,-0.428 z m -4.549,16.446 3.733,-2.558 3.413,2.873 -0.444,3.863 -2.92,1.285 -2.636,-0.945 -1.146,-4.518 z"
     id="path3490"
     inkscape:export-filename="/home/davidphilipegil/Dropbox/projects/navitude/yappy_birds/COMMON/website/logo-3.png"
     inkscape:export-xdpi="90"
     inkscape:export-ydpi="90"
     inkscape:connector-curvature="0"
     style="fill:#a5a5a5" /><polygon
     points="380.614,197.44 391.024,197.44 391.43,201.841 400.761,195.872 400.761,217.447 392.703,218.078 395.532,239.787 380.473,239.787 "
     id="polygon3492"
     inkscape:export-filename="/home/davidphilipegil/Dropbox/projects/navitude/yappy_birds/COMMON/website/logo-3.png"
     inkscape:export-xdpi="90"
     inkscape:export-ydpi="90"
     transform="translate(4.0372812,68.63378)"
     style="fill:#a5a5a5" /><path
     d="m 403.79828,266.33278 v 18.824 l -8.187,0.642 2.819,21.623 h -12.918 l 0.135,-40.346 h 8.502 l 0.473,5.128 9.176,-5.871 z m 2,-3.654 -3.078,1.969 -6.408,4.099 -0.171,-1.856 -0.167,-1.816 h -1.824 -8.502 -1.992 l -0.008,1.993 -0.135,40.348 -0.007,2.006 h 2.007 12.918 2.278 l -0.295,-2.258 -2.546,-19.537 6.086,-0.476 1.844,-0.144 v -1.851 -18.824 -3.653 z"
     id="path3494"
     inkscape:export-filename="/home/davidphilipegil/Dropbox/projects/navitude/yappy_birds/COMMON/website/logo-3.png"
     inkscape:export-xdpi="90"
     inkscape:export-ydpi="90"
     inkscape:connector-curvature="0"
     style="fill:#a5a5a5" /><polygon
     points="367.282,198.521 379.104,198.521 379.104,239.787 363.078,239.787 "
     id="polygon3496"
     inkscape:export-filename="/home/davidphilipegil/Dropbox/projects/navitude/yappy_birds/COMMON/website/logo-3.png"
     inkscape:export-xdpi="90"
     inkscape:export-ydpi="90"
     transform="translate(4.0372812,68.63378)"
     style="fill:#a5a5a5" /><path
     d="m 382.14128,268.15478 v 39.267 h -13.918 l 4,-39.267 h 9.918 z m 2,-2 h -2 -9.918 -1.808 l -0.183,1.797 -4,39.269 -0.224,2.201 h 2.214 13.918 2 v -2 -39.267 -2 z"
     id="path3498"
     inkscape:export-filename="/home/davidphilipegil/Dropbox/projects/navitude/yappy_birds/COMMON/website/logo-3.png"
     inkscape:export-xdpi="90"
     inkscape:export-ydpi="90"
     inkscape:connector-curvature="0"
     style="fill:#a5a5a5" /><polygon
     points="365.468,191.779 369.77,184.465 376.88,184.425 381.063,191.408 376.475,197.45 369.709,197.45 "
     id="polygon3500"
     inkscape:export-filename="/home/davidphilipegil/Dropbox/projects/navitude/yappy_birds/COMMON/website/logo-3.png"
     inkscape:export-xdpi="90"
     inkscape:export-ydpi="90"
     transform="translate(4.0372812,68.63378)"
     style="fill:#a5a5a5" /><path
     d="m 380.35228,254.06178 3.542,5.914 -3.879,5.108 h -5.769 l -3.543,-4.737 3.677,-6.251 5.972,-0.034 z m 1.129,-2.006 -1.141,0.006 -5.971,0.034 -1.137,0.007 -0.575,0.979 -3.678,6.251 -0.675,1.146 0.797,1.066 3.542,4.737 0.601,0.802 h 1.002 5.769 0.992 l 0.601,-0.79 3.88,-5.109 0.817,-1.077 -0.695,-1.16 -3.543,-5.913 -0.586,-0.979 z"
     id="path3502"
     inkscape:export-filename="/home/davidphilipegil/Dropbox/projects/navitude/yappy_birds/COMMON/website/logo-3.png"
     inkscape:export-xdpi="90"
     inkscape:export-ydpi="90"
     inkscape:connector-curvature="0"
     style="fill:#a5a5a5" /><path
     d="m 424.67828,306.92178 v -3.188 l -11.71,2.504 -7.636,-10.927 0.07,-17.036 14.156,-13.533 9.119,3.945 v -2.612 l -0.014,-2.76 -7.528,-0.006 -0.603,-2.254 2.915,-2.594 2.5,-0.278 -5.484,-1.952 -2.523,-3.756 0.971,-2.262 9.531,2.878 2.72,-4.316 4.852,0.693 4.279,4 -1.384,53.454 h -14.231 z m -1.616,-19.284 4.948,-2.389 0.636,-5.287 -5.322,-3.814 -5.12,4.106 1.34,5.296 3.518,2.088 z"
     id="path3504"
     inkscape:export-filename="/home/davidphilipegil/Dropbox/projects/navitude/yappy_birds/COMMON/website/logo-3.png"
     inkscape:export-xdpi="90"
     inkscape:export-ydpi="90"
     inkscape:connector-curvature="0"
     style="fill:#32b44a" /><path
     d="m 431.41228,249.31578 4.375,0.625 4,3.739 -1.366,52.741 h -13.242 v -3.305 l -11.991,2.563 -7.354,-10.525 0.068,-16.666 13.763,-13.156 9.515,4.115 v -3.373 l -0.017,-3.259 -7.643,-0.006 -0.423,-1.586 2.565,-2.283 4.5,-0.5 -7.375,-2.625 -2.281,-3.393 0.688,-1.602 9.468,2.859 2.75,-4.363 z m -8.374,38.888 5.437,-2.625 0.704,-5.852 -5.871,-4.207 -5.667,4.544 1.47,5.81 3.927,2.33 m 7.873,-39.97 -0.345,0.549 -2.344,3.719 -8.739,-2.638 -0.856,-0.259 -0.352,0.822 -0.688,1.601 -0.214,0.501 0.304,0.452 2.28,3.393 0.185,0.273 0.31,0.111 3.284,1.168 -0.184,0.021 -0.316,0.035 -0.238,0.212 -2.565,2.283 -0.461,0.409 0.158,0.596 0.425,1.586 0.197,0.741 0.768,10e-4 6.648,0.005 0.012,2.265 v 1.846 l -8.117,-3.511 -0.609,-0.264 -0.479,0.459 -13.764,13.156 -0.308,0.294 -10e-4,0.425 -0.068,16.666 -10e-4,0.316 0.182,0.26 7.354,10.526 0.38,0.543 0.649,-0.139 10.782,-2.306 v 2.069 1 h 1 13.242 0.976 l 0.024,-0.974 1.365,-52.742 0.012,-0.45 -0.327,-0.307 -4,-3.739 -0.23,-0.215 -0.312,-0.044 -4.375,-0.625 -0.644,-0.09 z m -12.144,32.209 4.573,-3.668 4.773,3.421 -0.567,4.721 -4.46,2.154 -3.109,-1.845 -1.21,-4.783 z"
     id="path3506"
     inkscape:export-filename="/home/davidphilipegil/Dropbox/projects/navitude/yappy_birds/COMMON/website/logo-3.png"
     inkscape:export-xdpi="90"
     inkscape:export-ydpi="90"
     inkscape:connector-curvature="0"
     style="fill:#141a3e" /><path
     d="m 326.30428,300.43478 h 6.121 l -0.21,-42.774 -5.319,0.848 -1.022,-6.412 21.82,-3.194 9.546,5.365 3.156,-1.654 5.261,3.369 -5.508,6.162 7.442,3.983 -5.466,3.954 -2.688,-0.165 -1.401,2.198 11.487,9.679 -1.813,16.16 -10.496,8.709 -30.91,0.264 v -6.492 z m 17.743,-10.703 10.243,-0.811 1.996,-5.323 -2.076,-3.49 -10.163,-1 v 10.624 z"
     id="path3508"
     inkscape:export-filename="/home/davidphilipegil/Dropbox/projects/navitude/yappy_birds/COMMON/website/logo-3.png"
     inkscape:export-xdpi="90"
     inkscape:export-ydpi="90"
     inkscape:connector-curvature="0"
     style="fill:#ed1175" /><path
     d="m 347.59628,249.42178 9.635,5.414 3.14,-1.645 4.521,2.896 -5.54,6.197 7.299,3.907 -4.674,3.38 -2.804,-0.172 -1.795,2.816 11.618,9.788 -1.761,15.693 -10.204,8.467 -30.228,0.259 v -5.487 h 6.124 l -0.216,-43.86 -5.401,0.861 -0.863,-5.418 21.149,-3.096 z m -4.049,40.85 11.1,-0.877 2.192,-5.846 -2.328,-3.913 -10.964,-1.079 v 11.715 m 4.241,-41.889 -0.337,0.049 -21.149,3.097 -1.002,0.146 0.159,1 0.864,5.419 0.157,0.987 0.987,-0.157 4.25,-0.678 0.205,41.689 h -5.119 -1 v 1 5.487 1.008 l 1.008,-0.008 30.229,-0.259 0.356,-0.002 0.273,-0.228 10.204,-8.468 0.31,-0.257 0.045,-0.401 1.762,-15.694 0.059,-0.531 -0.409,-0.345 -10.947,-9.224 1.007,-1.581 2.217,0.136 0.357,0.022 0.289,-0.21 4.674,-3.38 1.296,-0.938 -1.41,-0.755 -6.177,-3.306 4.692,-5.249 0.782,-0.876 -0.988,-0.633 -4.521,-2.896 -0.489,-0.314 -0.515,0.27 -2.659,1.394 -9.162,-5.149 -0.298,-0.165 z m -3.241,40.807 v -9.53 l 9.363,0.922 1.824,3.066 -1.801,4.801 -9.386,0.741 z"
     id="path3510"
     inkscape:export-filename="/home/davidphilipegil/Dropbox/projects/navitude/yappy_birds/COMMON/website/logo-3.png"
     inkscape:export-xdpi="90"
     inkscape:export-ydpi="90"
     inkscape:connector-curvature="0"
     style="fill:#141a3e" /><path
     d="m 260.53328,317.13378 -10e-4,-59.775 4.547,-4.565 h 6.203 l 2.25,2.896 h 2.915 l 3.407,4.345 h -3.149 l -1.482,1.122 3.672,1.403 -3.471,2.581 0.103,0.501 h 8.133 l 11.54,12.304 -0.001,22.375 -15.55,6.412 -3.475,-2.615 v 13.016 h -15.641 z m 15.146,-29.51 3.879,-2.241 1.669,-5.451 -5.522,-3.785 -4.871,4.101 1.269,5.216 3.576,2.16 z"
     id="path3512"
     inkscape:export-filename="/home/davidphilipegil/Dropbox/projects/navitude/yappy_birds/COMMON/website/logo-3.png"
     inkscape:export-xdpi="90"
     inkscape:export-ydpi="90"
     inkscape:connector-curvature="0"
     style="fill:#32b44a" /><path
     d="m 271.03728,253.29378 2.25,2.897 h 2.917 l 2.623,3.345 h -2.29 l -2.333,1.767 3.662,1.4 -2.995,2.227 0.326,1.587 0.477,-0.375 h 7.77 l 11.256,12.003 v 21.842 l -14.978,6.177 -4.048,-3.048 v 13.518 h -14.641 v -50.492 -8.576 l 4.254,-4.272 h 5.75 z m 4.637,34.91 4.305,-2.486 1.834,-5.99 -6.139,-4.207 -5.398,4.544 1.391,5.72 4.007,2.419 m -4.148,-35.91 h -0.489 -5.75 -0.415 l -0.293,0.295 -4.255,4.271 -0.291,0.293 v 0.413 8.576 50.492 1 h 1 14.641 1 v -1 -11.514 l 2.446,1.842 0.456,0.344 0.527,-0.217 14.978,-6.178 0.619,-0.256 v -0.669 -21.842 -0.396 l -0.271,-0.288 -11.256,-12.003 -0.296,-0.316 h -0.433 -7.183 l 2.202,-1.637 1.461,-1.086 -1.701,-0.651 -1.979,-0.756 0.629,-0.476 h 1.954 2.055 l -1.268,-1.617 -2.623,-3.345 -0.3,-0.383 h -0.487 -2.427 l -1.95,-2.51 -0.301,-0.386 z m -0.133,28.136 4.342,-3.655 4.906,3.362 -1.504,4.911 -3.453,1.996 -3.145,-1.9 -1.146,-4.714 z"
     id="path3514"
     inkscape:export-filename="/home/davidphilipegil/Dropbox/projects/navitude/yappy_birds/COMMON/website/logo-3.png"
     inkscape:export-xdpi="90"
     inkscape:export-ydpi="90"
     inkscape:connector-curvature="0"
     style="fill:#141a3e" /><path
     d="m 224.30328,317.13378 v -50.823 l -5.481,-4.088 4.378,-1.553 -4.634,-3.209 5.859,-0.946 2.432,-3.246 5.399,-0.592 6.239,3.175 1.406,9.79 h 7.529 l 11.54,12.304 v 22.375 l -15.551,6.412 -3.475,-2.615 v 13.016 h -15.641 z m 15.168,-29.49 4.698,-2.134 0.871,-5.548 -5.565,-3.814 -4.864,4.096 1.441,5.423 3.419,1.977 z"
     id="path3516"
     inkscape:export-filename="/home/davidphilipegil/Dropbox/projects/navitude/yappy_birds/COMMON/website/logo-3.png"
     inkscape:export-xdpi="90"
     inkscape:export-ydpi="90"
     inkscape:connector-curvature="0"
     style="fill:#e4b922" /><path
     d="m 232.16228,253.18978 5.875,2.99 1.43,9.962 h 7.747 l 11.256,12.002 -10e-4,21.843 -14.978,6.177 -4.047,-3.048 v 13.518 h -14.641 l -0.001,-50.492 h 0.11 l -5.041,-3.76 4.416,-1.567 -4.416,-3.058 4.833,-0.78 2.423,-3.234 5.035,-0.553 z m 7.281,35.015 5.178,-2.353 0.962,-6.125 -6.139,-4.207 -5.398,4.545 1.576,5.93 3.821,2.21 m -7.093,-36.041 -0.297,0.032 -5.035,0.553 -0.431,0.047 -0.26,0.347 -2.181,2.911 -4.435,0.716 -2.451,0.395 2.041,1.414 2.812,1.947 -2.577,0.913 -1.763,0.626 1.5,1.118 4.529,3.379 0.001,50.072 v 1 h 1 14.641 1 v -1 -11.513 l 2.446,1.842 0.456,0.343 0.527,-0.218 14.978,-6.177 0.618,-0.256 v -0.668 l 10e-4,-21.843 v -0.395 l -0.271,-0.289 -11.256,-12.002 -0.296,-0.316 h -0.433 -6.88 l -1.307,-9.104 -0.073,-0.513 -0.463,-0.236 -5.875,-2.99 -0.266,-0.135 z m 2.825,28.257 4.331,-3.646 4.991,3.421 -0.781,4.969 -4.218,1.916 -3.016,-1.744 -1.307,-4.916 z"
     id="path3518"
     inkscape:export-filename="/home/davidphilipegil/Dropbox/projects/navitude/yappy_birds/COMMON/website/logo-3.png"
     inkscape:export-xdpi="90"
     inkscape:export-ydpi="90"
     inkscape:connector-curvature="0"
     style="fill:#141a3e" /><polygon
     points="150.213,229.631 154.919,231.713 163.185,214.025 153.381,186.371 148.184,186.371 148.184,179.879 162.792,180.022 170.122,199.183 173.572,191.801 172.975,185.924 178.172,180.93 181.565,180.197 184.858,181.824 186.477,180.205 193.507,180.787 188.638,184.66 187.492,186.538 194.411,187.473 187.359,191.324 169.364,238.102 174.82,240.514 172.258,246.473 147.65,235.59 "
     id="polygon3520"
     inkscape:export-filename="/home/davidphilipegil/Dropbox/projects/navitude/yappy_birds/COMMON/website/logo-3.png"
     inkscape:export-xdpi="90"
     inkscape:export-ydpi="90"
     transform="translate(4.0372812,68.63378)"
     style="fill:#ed1175" /><path
     d="m 152.72128,249.01878 13.763,0.134 7.63,19.944 4.007,-8.574 -0.586,-5.772 4.919,-4.727 3.084,-0.666 3.458,1.708 1.708,-1.708 5.542,0.458 -3.951,3.143 -1.591,2.607 6.167,0.833 -5.875,3.209 -18.232,47.394 5.439,2.404 -2.168,5.041 -23.693,-10.48 2.168,-5.039 4.692,2.074 8.56,-18.315 -9.99,-28.18 h -5.051 v -5.488 z m -1,-1.01 v 1.01 5.487 1 h 1 4.344 l 9.618,27.128 -7.972,17.057 -3.796,-1.68 -0.924,-0.407 -0.399,0.928 -2.168,5.04 -0.391,0.909 0.905,0.401 23.693,10.479 0.924,0.409 0.399,-0.929 2.168,-5.041 0.391,-0.908 -0.905,-0.4 -4.569,-2.021 17.758,-46.161 5.553,-3.032 2.675,-1.461 -3.02,-0.408 -4.65,-0.628 0.701,-1.149 3.812,-3.032 1.975,-1.572 -2.515,-0.208 -5.541,-0.458 -0.462,-0.038 -0.328,0.328 -1.201,1.201 -2.816,-1.391 -0.313,-0.155 -0.341,0.074 -3.083,0.667 -0.277,0.06 -0.205,0.196 -4.919,4.727 -0.351,0.337 0.049,0.485 0.558,5.498 -2.893,6.189 -6.787,-17.743 -0.243,-0.636 -0.681,-0.007 -13.763,-0.134 -1.01,-0.011 z"
     id="path3522"
     inkscape:export-filename="/home/davidphilipegil/Dropbox/projects/navitude/yappy_birds/COMMON/website/logo-3.png"
     inkscape:export-xdpi="90"
     inkscape:export-ydpi="90"
     inkscape:connector-curvature="0"
     style="fill:#141a3e" /><polygon
     points="436.758,222.796 446.627,222.982 437.108,214.934 437.571,206.724 446.519,196.899 454.28,197.203 465.264,206.815 459.744,215.845 451.488,209.054 449.224,211.774 464.788,224.882 460.849,234.902 452.652,238.43 437.83,237.379 "
     id="polygon3524"
     inkscape:export-filename="/home/davidphilipegil/Dropbox/projects/navitude/yappy_birds/COMMON/website/logo-3.png"
     inkscape:export-xdpi="90"
     inkscape:export-ydpi="90"
     transform="translate(4.0372812,68.63378)"
     style="fill:#047eaf" /><path
     d="m 450.76728,266.04178 7.354,0.288 10.532,9.218 -5,8.18 -8.194,-6.742 -2.901,3.484 15.67,13.198 -3.73,9.491 -7.895,3.397 -14.27,-1.012 -1,-13.604 10.728,0.203 -10.402,-8.796 0.438,-7.783 8.67,-9.522 z m -0.425,-1.018 -0.313,0.344 -8.67,9.523 -0.239,0.263 -0.02,0.354 -0.439,7.783 -0.027,0.498 0.381,0.322 8.254,6.979 -7.915,-0.148 -1.096,-0.021 0.08,1.094 1,13.604 0.063,0.863 0.863,0.062 14.27,1.012 0.243,0.018 0.224,-0.096 7.894,-3.398 0.383,-0.165 0.152,-0.388 3.73,-9.491 0.264,-0.668 -0.549,-0.463 -14.91,-12.557 1.629,-1.956 7.427,6.11 0.889,0.731 0.601,-0.981 5,-8.181 0.438,-0.719 -0.634,-0.555 -10.533,-9.217 -0.266,-0.233 -0.354,-0.014 -7.354,-0.289 -0.466,-0.02 z"
     id="path3526"
     inkscape:export-filename="/home/davidphilipegil/Dropbox/projects/navitude/yappy_birds/COMMON/website/logo-3.png"
     inkscape:export-xdpi="90"
     inkscape:export-ydpi="90"
     inkscape:connector-curvature="0"
     style="fill:#141a3e" /><polygon
     points="298.914,228.527 288.556,196.94 300.281,196.94 305.159,213.732 309.918,196.94 321.202,196.94 307.006,250.619 291.702,246.33 "
     id="polygon3528"
     inkscape:export-filename="/home/davidphilipegil/Dropbox/projects/navitude/yappy_birds/COMMON/website/logo-3.png"
     inkscape:export-xdpi="90"
     inkscape:export-ydpi="90"
     transform="translate(4.0372812,68.63378)"
     style="fill:#047eaf" /><path
     d="m 324.58828,266.07378 -13.899,52.56 -14.277,-4 7.071,-17.455 -10.201,-31.104 h 10.66 l 5.259,18.104 5.133,-18.104 h 10.254 z m 1.3,-1 h -1.3 -10.254 -0.757 l -0.206,0.727 -4.182,14.752 -4.287,-14.758 -0.209,-0.721 h -0.751 -10.66 -1.381 l 0.431,1.312 10.087,30.757 -6.934,17.115 -0.42,1.037 1.077,0.301 14.277,4 0.978,0.273 0.259,-0.98 13.899,-52.56 0.333,-1.255 z"
     id="path3530"
     inkscape:export-filename="/home/davidphilipegil/Dropbox/projects/navitude/yappy_birds/COMMON/website/logo-3.png"
     inkscape:export-xdpi="90"
     inkscape:export-ydpi="90"
     inkscape:connector-curvature="0"
     style="fill:#141a3e" /><path
     d="m 205.84528,306.88878 v -2.771 l -3.476,2.616 -15.55,-6.414 v -22.374 l 11.539,-12.304 h 8.159 l 4.726,3.713 v -3.713 h 10.243 v 41.246 h -15.641 z m 0.481,-19.222 4.255,-1.875 0.634,-5.519 -4.902,-4.126 -5.537,3.795 1.6,6.307 3.95,1.418 z"
     id="path3532"
     inkscape:export-filename="/home/davidphilipegil/Dropbox/projects/navitude/yappy_birds/COMMON/website/logo-3.png"
     inkscape:export-xdpi="90"
     inkscape:export-ydpi="90"
     inkscape:connector-curvature="0"
     style="fill:#e84624" /><path
     d="m 206.34428,266.14178 5.399,4.243 v -4.243 h 9.243 l -0.001,40.247 h -14.641 v -3.272 l -4.047,3.048 -14.978,-6.177 -0.001,-21.844 11.257,-12.002 h 7.769 z m 0.001,22.063 4.699,-2.071 0.699,-6.069 -5.399,-4.545 -6.139,4.208 1.751,6.902 4.389,1.575 m 0.345,-23.063 h -0.346 -7.769 -0.434 l -0.296,0.316 -11.256,12.002 -0.271,0.289 v 0.395 l 0.001,21.844 v 0.668 l 0.619,0.256 14.977,6.177 0.528,0.218 0.455,-0.343 2.446,-1.843 v 1.269 1 h 1 14.641 1 v -1 l 0.001,-40.247 v -1 h -1 -9.243 -1 v 1 2.185 l -3.781,-2.971 -0.272,-0.215 z m -5.344,15.016 4.936,-3.383 4.406,3.709 -0.572,4.966 -3.809,1.679 -3.512,-1.261 -1.449,-5.71 z"
     id="path3534"
     inkscape:export-filename="/home/davidphilipegil/Dropbox/projects/navitude/yappy_birds/COMMON/website/logo-3.png"
     inkscape:export-xdpi="90"
     inkscape:export-ydpi="90"
     inkscape:connector-curvature="0"
     style="fill:#141a3e" /><polygon
     points="381.113,196.94 390.568,196.94 391.008,201.705 400.261,195.785 400.261,215.986 392.139,216.621 394.963,238.287 380.974,238.287 "
     id="polygon3536"
     inkscape:export-filename="/home/davidphilipegil/Dropbox/projects/navitude/yappy_birds/COMMON/website/logo-3.png"
     inkscape:export-xdpi="90"
     inkscape:export-ydpi="90"
     transform="translate(4.0372812,68.63378)"
     style="fill:#e4b922" /><path
     d="m 403.79828,265.33278 v 18.824 l -8.187,0.641 2.819,21.624 h -12.918 l 0.135,-40.347 h 8.502 l 0.473,5.128 9.176,-5.87 z m 1,-1.827 -1.539,0.984 -7.792,4.985 -0.321,-3.492 -0.084,-0.908 h -0.912 -8.502 -0.996 l -0.004,0.997 -0.135,40.348 -0.003,1.002 h 1.003 12.918 1.139 l -0.146,-1.129 -2.683,-20.58 7.136,-0.559 0.922,-0.072 v -0.925 -18.824 -1.827 z"
     id="path3538"
     inkscape:export-filename="/home/davidphilipegil/Dropbox/projects/navitude/yappy_birds/COMMON/website/logo-3.png"
     inkscape:export-xdpi="90"
     inkscape:export-ydpi="90"
     inkscape:connector-curvature="0"
     style="fill:#141a3e" /><polygon
     points="367.734,198.021 378.604,198.021 378.604,238.287 363.632,238.287 "
     id="polygon3540"
     inkscape:export-filename="/home/davidphilipegil/Dropbox/projects/navitude/yappy_birds/COMMON/website/logo-3.png"
     inkscape:export-xdpi="90"
     inkscape:export-ydpi="90"
     transform="translate(4.0372812,68.63378)"
     style="fill:#e84624" /><path
     d="m 382.14128,267.15478 v 39.267 h -13.918 l 4,-39.267 h 9.918 z m 1,-1 h -1 -9.918 -0.903 l -0.092,0.899 -4,39.267 -0.112,1.101 h 1.107 13.918 1 v -1 -39.267 -1 z"
     id="path3542"
     inkscape:export-filename="/home/davidphilipegil/Dropbox/projects/navitude/yappy_birds/COMMON/website/logo-3.png"
     inkscape:export-xdpi="90"
     inkscape:export-ydpi="90"
     inkscape:connector-curvature="0"
     style="fill:#141a3e" /><polygon
     points="366.067,190.746 370.057,183.963 376.598,183.927 380.46,190.375 376.227,195.95 369.96,195.95 "
     id="polygon3544"
     inkscape:export-filename="/home/davidphilipegil/Dropbox/projects/navitude/yappy_birds/COMMON/website/logo-3.png"
     inkscape:export-xdpi="90"
     inkscape:export-ydpi="90"
     transform="translate(4.0372812,68.63378)"
     style="fill:#e84624" /><path
     d="m 380.35228,253.06178 3.543,5.914 -3.881,5.108 h -5.768 l -3.543,-4.737 3.677,-6.251 5.972,-0.034 z m 0.565,-1.003 -0.57,0.003 -5.972,0.034 -0.568,0.003 -0.287,0.49 -3.678,6.251 -0.337,0.573 0.398,0.533 3.543,4.737 0.3,0.401 h 0.501 5.768 0.497 l 0.301,-0.395 3.879,-5.109 0.408,-0.538 -0.347,-0.58 -3.543,-5.914 -0.293,-0.489 z"
     id="path3546"
     inkscape:export-filename="/home/davidphilipegil/Dropbox/projects/navitude/yappy_birds/COMMON/website/logo-3.png"
     inkscape:export-xdpi="90"
     inkscape:export-ydpi="90"
     inkscape:connector-curvature="0"
     style="fill:#141a3e" /><polygon
     points="343.069,199.882 350.625,197.193 350.625,190.215 345.625,187.438 339.514,188.969 338.625,196.283 "
     id="polygon3548"
     inkscape:export-filename="/home/davidphilipegil/Dropbox/projects/navitude/yappy_birds/COMMON/website/logo-3.png"
     inkscape:export-xdpi="90"
     inkscape:export-ydpi="90"
     transform="translate(4.0372812,68.63378)"
     style="fill:#ffffff" /><polygon
     points="344,196.938 348.25,195.425 348.25,191.5 345.438,189.938 342,190.799 341.5,194.913 "
     id="polygon3550"
     inkscape:export-filename="/home/davidphilipegil/Dropbox/projects/navitude/yappy_birds/COMMON/website/logo-3.png"
     inkscape:export-xdpi="90"
     inkscape:export-ydpi="90"
     transform="translate(4.0372812,68.63378)" /><polygon
     points="226.167,193.334 230.167,192.25 230.59,188.143 227.465,186.407 224.334,186.759 223.09,189.974 "
     id="polygon3552"
     inkscape:export-filename="/home/davidphilipegil/Dropbox/projects/navitude/yappy_birds/COMMON/website/logo-3.png"
     inkscape:export-xdpi="90"
     inkscape:export-ydpi="90"
     transform="translate(4.0372812,68.63378)"
     style="fill:#ffffff" /><polygon
     points="265.33,192.919 267.962,189.324 265.783,186.118 262.617,186.403 260.288,189.017 262.164,192.654 "
     id="polygon3554"
     inkscape:export-filename="/home/davidphilipegil/Dropbox/projects/navitude/yappy_birds/COMMON/website/logo-3.png"
     inkscape:export-xdpi="90"
     inkscape:export-ydpi="90"
     transform="translate(4.0372812,68.63378)"
     style="fill:#ffffff" /><polygon
     points="180.555,188.841 183.931,187.472 184.824,184.492 182.226,182.268 178.928,182.934 177.917,186.123 "
     id="polygon3556"
     inkscape:export-filename="/home/davidphilipegil/Dropbox/projects/navitude/yappy_birds/COMMON/website/logo-3.png"
     inkscape:export-xdpi="90"
     inkscape:export-ydpi="90"
     transform="translate(4.0372812,68.63378)"
     style="fill:#ffffff" /><polygon
     points="432.75,189.344 434,185.691 431.375,183.163 428.25,183.163 425.992,187.238 428.649,190.239 "
     id="polygon3558"
     inkscape:export-filename="/home/davidphilipegil/Dropbox/projects/navitude/yappy_birds/COMMON/website/logo-3.png"
     inkscape:export-xdpi="90"
     inkscape:export-ydpi="90"
     transform="translate(4.0372812,68.63378)"
     style="fill:#ffffff" /><polygon
     points="179.321,185.554 180.502,186.797 182.356,186.179 182.356,184.324 181.371,183.425 179.646,183.818 "
     id="polygon3560"
     inkscape:export-filename="/home/davidphilipegil/Dropbox/projects/navitude/yappy_birds/COMMON/website/logo-3.png"
     inkscape:export-xdpi="90"
     inkscape:export-ydpi="90"
     transform="translate(4.0372812,68.63378)" /><polygon
     points="225.167,189.87 226.25,191.129 228.25,190.667 228.583,189.005 227.652,187.595 225.667,188.073 "
     id="polygon3562"
     inkscape:export-filename="/home/davidphilipegil/Dropbox/projects/navitude/yappy_birds/COMMON/website/logo-3.png"
     inkscape:export-xdpi="90"
     inkscape:export-ydpi="90"
     transform="translate(4.0372812,68.63378)" /><polygon
     points="265.583,187.419 266.137,188.904 265.356,190.647 263.18,190.647 262.4,188.66 263.406,187.468 "
     id="polygon3564"
     inkscape:export-filename="/home/davidphilipegil/Dropbox/projects/navitude/yappy_birds/COMMON/website/logo-3.png"
     inkscape:export-xdpi="90"
     inkscape:export-ydpi="90"
     transform="translate(4.0372812,68.63378)" /><polygon
     points="429.125,184.875 430.932,184.875 431.875,186.691 430.932,188.5 429.25,188.5 428.141,187.122 "
     id="polygon3566"
     inkscape:export-filename="/home/davidphilipegil/Dropbox/projects/navitude/yappy_birds/COMMON/website/logo-3.png"
     inkscape:export-xdpi="90"
     inkscape:export-ydpi="90"
     transform="translate(4.0372812,68.63378)" /><path
     fill="#A5A5A5"
     d="M338.207,534.105l5.648-1.162l-5.05-6.559l7.597-3.375l-2.933-4.498l-3.539,0.21l-6.561-8.894l-20.556-5.863  l-1.437,5.295l5.278,1.434l-17.816,40.079l-12.113-5.406l18.232-47.393l5.875-3.209l-6.167-0.833l1.591-2.607l3.951-3.143  l-5.542-0.458l-1.708,1.708l-3.459-1.708l-3.083,0.666l-4.92,4.727l0.587,5.772l-4.008,8.574l-7.629-19.944l-13.763-0.134v5.486  h5.051l9.99,28.18l-8.56,18.316l-4.692-2.074l-2.168,5.039l52.364,23.107l12.78-3.529l8.052-13.587l-6.572-13.696l2.792-1.83  L338.207,534.105z M323.382,549.17l-10.48-3.758l4.812-10.683l9.553,5.487l0.516,4.523L323.382,549.17z"
     id="path3568" /><path
     fill="none"
     stroke="#A5A5A5"
     stroke-width="2"
     stroke-miterlimit="10"
     d="M338.207,534.105l5.648-1.162l-5.05-6.559  l7.597-3.375l-2.933-4.498l-3.539,0.21l-6.561-8.894l-20.556-5.863l-1.437,5.295l5.278,1.434l-17.816,40.079l-12.113-5.406  l18.232-47.393l5.875-3.209l-6.167-0.833l1.591-2.607l3.951-3.143l-5.542-0.458l-1.708,1.708l-3.459-1.708l-3.083,0.666l-4.92,4.727  l0.587,5.772l-4.008,8.574l-7.629-19.944l-13.763-0.134v5.486h5.051l9.99,28.18l-8.56,18.316l-4.692-2.074l-2.168,5.039  l52.364,23.107l12.78-3.529l8.052-13.587l-6.572-13.696l2.792-1.83L338.207,534.105z M323.382,549.17l-10.48-3.758l4.812-10.683  l9.553,5.487l0.516,4.523L323.382,549.17z"
     id="path3570" /><path
     fill="#ED1175"
     d="M338.207,533.105l5.648-1.162l-5.05-6.559l7.597-3.375l-2.933-4.498l-3.539,0.21l-6.561-8.894l-20.556-5.863  l-1.437,5.295l5.278,1.434l-17.816,40.079l-12.113-5.406l18.232-47.393l5.875-3.209l-6.167-0.833l1.591-2.607l3.951-3.143  l-5.542-0.458l-1.708,1.708l-3.459-1.708l-3.083,0.666l-4.92,4.727l0.587,5.772l-4.008,8.574l-7.629-19.944l-13.763-0.134v5.486  h5.051l9.99,28.18l-8.56,18.316l-4.692-2.074l-2.168,5.039l52.364,23.107l12.78-3.529l8.052-13.587l-6.572-13.696l2.792-1.83  L338.207,533.105z M323.382,548.17l-10.48-3.758l4.812-10.683l9.553,5.487l0.516,4.523L323.382,548.17z"
     id="path3572" /><path
     fill="none"
     stroke="#141A3E"
     stroke-miterlimit="10"
     d="M338.207,533.105l5.648-1.162l-5.05-6.559l7.597-3.375l-2.933-4.498  l-3.539,0.21l-6.561-8.894l-20.556-5.863l-1.437,5.295l5.278,1.434l-17.816,40.079l-12.113-5.406l18.232-47.393l5.875-3.209  l-6.167-0.833l1.591-2.607l3.951-3.143l-5.542-0.458l-1.708,1.708l-3.459-1.708l-3.083,0.666l-4.92,4.727l0.587,5.772l-4.008,8.574  l-7.629-19.944l-13.763-0.134v5.486h5.051l9.99,28.18l-8.56,18.316l-4.692-2.074l-2.168,5.039l52.364,23.107l12.78-3.529  l8.052-13.587l-6.572-13.696l2.792-1.83L338.207,533.105z M323.382,548.17l-10.48-3.758l4.812-10.683l9.553,5.487l0.516,4.523  L323.382,548.17z"
     id="path3574" /><polygon
     fill="#FFFFFF"
     points="295.917,492.123 298.555,494.842 301.931,493.472 302.823,490.492 300.226,488.268 296.928,488.934   "
     id="polygon3576" /><polygon
     points="297.646,489.818 297.321,491.554 298.503,492.797 300.357,492.179 300.357,490.324 299.37,489.425 "
     id="polygon3578" /><polygon
     fill="#FFFFFF"
     points="322.508,520.931 325.081,526.037 333.074,526.688 335.94,520.326 332.522,515.739 326.321,514.627   "
     id="polygon3580" /><polygon
     points="325.691,520.862 327.14,523.734 331.636,524.102 333.247,520.521 331.325,517.942 327.837,517.316 "
     id="polygon3582" /><g
     id="g3104"
     inkscape:export-filename="/home/davidphilipegil/Dropbox/projects/navitude/yappy_birds/COMMON/website/logo-3.png"
     inkscape:export-xdpi="90"
     inkscape:export-ydpi="90"><path
       style="fill:#32b44a"
       inkscape:connector-curvature="0"
       inkscape:export-ydpi="90"
       inkscape:export-xdpi="90"
       inkscape:export-filename="/home/davidphilipegil/Dropbox/projects/navitude/yappy_birds/COMMON/website/logo-3.png"
       id="path3504-6"
       d="m 306.69778,132.64428 v -6.376 l -23.42,5.008 -15.272,-21.854 0.14,-34.071998 28.312,-27.066 18.238,7.89 v -5.224 l -0.028,-5.52 -15.056,-0.012 -1.206,-4.508 5.83,-5.188 5,-0.556 -10.968,-3.904 -5.046,-7.512 1.942,-4.524 19.062,5.756 5.44,-8.632 9.704,1.386 8.558,8 -2.768,106.907998 h -28.462 z m -3.232,-38.567998 9.896,-4.778 1.272,-10.574 -10.644,-7.628 -10.24,8.212 2.68,10.592 7.036,4.176 z" /><path
       style="fill:#141a3e"
       inkscape:connector-curvature="0"
       inkscape:export-ydpi="90"
       inkscape:export-xdpi="90"
       inkscape:export-filename="/home/davidphilipegil/Dropbox/projects/navitude/yappy_birds/COMMON/website/logo-3.png"
       id="path3506-1"
       d="m 320.16578,17.432282 8.75,1.25 8,7.478 -2.732,105.481998 h -26.484 v -6.61 l -23.982,5.126 -14.708,-21.05 0.136,-33.331998 27.526,-26.312 19.03,8.23 v -6.746 l -0.034,-6.518 -15.286,-0.012 -0.846,-3.172 5.13,-4.566 9,-1 -14.75,-5.25 -4.562,-6.786 1.376,-3.204 18.936,5.718 5.5,-8.726 z m -16.748,77.776 10.874,-5.25 1.408,-11.704 -11.742,-8.414 -11.334,9.088 2.94,11.62 7.854,4.66 m 15.746,-79.94 -0.69,1.098 -4.688,7.438 -17.478,-5.276 -1.712,-0.518 -0.704,1.644 -1.376,3.202 -0.428,1.002 0.608,0.904 4.56,6.786 0.37,0.546 0.62,0.222 6.568,2.336 -0.368,0.042 -0.632,0.07 -0.476,0.424 -5.13,4.566 -0.922,0.818 0.316,1.192 0.85,3.172 0.394,1.482 1.536,0.002 13.296,0.01 0.024,4.53 v 3.692 l -16.234,-7.022 -1.218,-0.528 -0.958,0.918 -27.528,26.312 -0.616,0.588 -0.002,0.85 -0.136,33.331998 -0.002,0.632 0.364,0.52 14.708,21.052 0.76,1.086 1.298,-0.278 21.564,-4.612 v 4.138 2 h 2 26.484 1.952 l 0.048,-1.948 2.73,-105.483998 0.024,-0.9 -0.654,-0.614 -8,-7.478 -0.46,-0.43 -0.624,-0.088 -8.75,-1.25 -1.288,-0.18 z m -24.288,64.418 9.146,-7.336 9.546,6.842 -1.134,9.442 -8.92,4.308 -6.218,-3.69 -2.42,-9.566 z" /><path
       style="fill:#ed1175"
       inkscape:connector-curvature="0"
       inkscape:export-ydpi="90"
       inkscape:export-xdpi="90"
       inkscape:export-filename="/home/davidphilipegil/Dropbox/projects/navitude/yappy_birds/COMMON/website/logo-3.png"
       id="path3508-8"
       d="m 109.94978,119.67028 h 12.242 l -0.42,-85.547998 -10.638,1.696 -2.044,-12.824 43.64,-6.388 19.092,10.73 6.312,-3.308 10.522,6.738 -11.016,12.324 14.884,7.966 -10.932,7.908 -5.376,-0.33 -2.802,4.396 22.974,19.358 -3.626,32.319998 -20.992,17.418 -61.82,0.528 v -12.984 z m 35.486,-21.405998 20.486,-1.622 3.992,-10.646 -4.152,-6.98 -20.326,-2 v 21.248 z" /><path
       style="fill:#141a3e"
       inkscape:connector-curvature="0"
       inkscape:export-ydpi="90"
       inkscape:export-xdpi="90"
       inkscape:export-filename="/home/davidphilipegil/Dropbox/projects/navitude/yappy_birds/COMMON/website/logo-3.png"
       id="path3510-9"
       d="m 152.53378,17.644282 19.27,10.828 6.28,-3.29 9.042,5.792 -11.08,12.394 14.598,7.814 -9.348,6.76 -5.608,-0.344 -3.59,5.632 23.236,19.576 -3.522,31.385998 -20.408,16.934 -60.456,0.518 v -10.974 h 12.248 l -0.432,-87.719998 -10.802,1.722 -1.726,-10.836 42.298,-6.192 z m -8.098,81.7 22.2,-1.754 4.384,-11.692 -4.656,-7.826 -21.928,-2.158 v 23.43 m 8.482,-83.778 -0.674,0.098 -42.298,6.194 -2.004,0.292 0.318,2 1.728,10.838 0.314,1.974 1.974,-0.314 8.5,-1.356 0.41,83.377998 h -10.238 -2 v 2 10.974 2.016 l 2.016,-0.016 60.458,-0.518 0.712,-0.004 0.546,-0.456 20.408,-16.936 0.62,-0.514 0.09,-0.802 3.524,-31.387998 0.118,-1.062 -0.818,-0.69 -21.894,-18.448 2.014,-3.162 4.434,0.272 0.714,0.044 0.578,-0.42 9.348,-6.76 2.592,-1.876 -2.82,-1.51 -12.354,-6.612 9.384,-10.498 1.564,-1.752 -1.976,-1.266 -9.042,-5.792 -0.978,-0.628 -1.03,0.54 -5.318,2.788 -18.324,-10.298 -0.596,-0.33 z m -6.482,81.614 v -19.06 l 18.726,1.844 3.648,6.132 -3.602,9.602 -18.772,1.482 z" /><path
       style="fill:#32b44a"
       inkscape:connector-curvature="0"
       inkscape:export-ydpi="90"
       inkscape:export-xdpi="90"
       inkscape:export-filename="/home/davidphilipegil/Dropbox/projects/navitude/yappy_birds/COMMON/website/logo-3.png"
       id="path3512-2"
       d="m -21.592219,153.06828 -0.002,-119.549998 9.094,-9.13 h 12.40599964 l 4.49999996,5.792 h 5.8300004 l 6.814,8.69 h -6.298 l -2.9640004,2.244 7.3440004,2.806 -6.9420004,5.162 0.206,1.002 H 24.661781 l 23.08,24.608 -0.002,44.749998 -31.1,12.824 -6.9500004,-5.23 v 26.032 H -21.592219 z m 30.2919996,-59.019998 7.7580004,-4.482 3.338,-10.902 -11.0440004,-7.57 -9.74199996,8.202 2.53799996,10.432 7.152,4.32 z" /><path
       style="fill:#141a3e"
       inkscape:connector-curvature="0"
       inkscape:export-ydpi="90"
       inkscape:export-xdpi="90"
       inkscape:export-filename="/home/davidphilipegil/Dropbox/projects/navitude/yappy_birds/COMMON/website/logo-3.png"
       id="path3514-1"
       d="m -0.58421936,25.388282 4.49999996,5.794 h 5.834 l 5.2460004,6.69 h -4.58 l -4.6660004,3.534 7.3240004,2.8 -5.9900004,4.454 0.652,3.174 0.954,-0.75 H 24.229781 l 22.512,24.006 v 43.683998 l -29.956,12.354 -8.0960004,-6.096 v 27.036 H -20.592219 v -100.983998 -17.152 l 8.508,-8.544 h 11.49999964 z m 9.27399996,69.82 8.6100004,-4.972 3.668,-11.98 -12.2780004,-8.414 -10.796,9.088 2.78200004,11.44 8.01399996,4.838 m -8.29599996,-71.82 h -0.978 -11.49999964 -0.83 l -0.586,0.59 -8.51,8.542 -0.582,0.586 v 0.826 17.152 100.983998 2 h 2 29.2819996 2.0000004 v -2 -23.028 l 4.892,3.684 0.912,0.688 1.054,-0.434 29.956,-12.356 1.238,-0.512 v -1.338 -43.683998 -0.792 l -0.542,-0.576 -22.512,-24.006 -0.592,-0.632 h -0.866 -14.3660004 l 4.4040004,-3.274 2.922,-2.172 -3.402,-1.302 -3.9580004,-1.512 1.2580004,-0.952 h 3.908 4.11 l -2.536,-3.234 -5.246,-6.69 -0.6,-0.766 h -0.9740004 -4.854 l -3.89999996,-5.02 -0.602,-0.772 z m -0.266,56.272 8.68399996,-7.31 9.8120004,6.724 -3.008,9.822 -6.9060004,3.992 -6.29,-3.8 -2.29199996,-9.428 z" /><path
       style="fill:#e4b922"
       inkscape:connector-curvature="0"
       inkscape:export-ydpi="90"
       inkscape:export-xdpi="90"
       inkscape:export-filename="/home/davidphilipegil/Dropbox/projects/navitude/yappy_birds/COMMON/website/logo-3.png"
       id="path3516-6"
       d="M -94.052219,153.06828 V 51.422282 l -10.962001,-8.176 8.756001,-3.106 -9.268001,-6.418 11.718001,-1.892 4.864,-6.492 10.798,-1.184 12.478,6.35 2.812,19.58 h 15.058 l 23.08,24.608 v 44.749998 l -31.102,12.824 -6.95,-5.23 v 26.032 h -31.282 z m 30.336,-58.979998 9.396,-4.268 1.742,-11.096 -11.13,-7.628 -9.728,8.192 2.882,10.846 6.838,3.954 z" /><path
       style="fill:#141a3e"
       inkscape:connector-curvature="0"
       inkscape:export-ydpi="90"
       inkscape:export-xdpi="90"
       inkscape:export-filename="/home/davidphilipegil/Dropbox/projects/navitude/yappy_birds/COMMON/website/logo-3.png"
       id="path3518-3"
       d="m -78.334219,25.180282 11.75,5.98 2.86,19.924 h 15.494 l 22.512,24.004 -0.002,43.685998 -29.956,12.354 -8.094,-6.096 v 27.036 h -29.282 l -0.002,-100.983998 h 0.22 l -10.082001,-7.52 8.832001,-3.134 -8.832001,-6.116 9.666001,-1.56 4.846,-6.468 10.07,-1.106 z m 14.562,70.03 10.356,-4.706 1.924,-12.25 -12.278,-8.414 -10.796,9.09 3.152,11.86 7.642,4.42 m -14.186,-72.082 -0.594,0.064 -10.07,1.106 -0.862,0.094 -0.52,0.694 -4.362,5.822 -8.870001,1.432 -4.902,0.79 4.082,2.828 5.624001,3.894 -5.154001,1.826 -3.526,1.252 3,2.236 9.058001,6.758 0.002,100.143998 v 2 h 2 29.282 2 v -2 -23.026 l 4.892,3.684 0.912,0.686 1.054,-0.436 29.956,-12.354 1.236,-0.512 v -1.336 l 0.002,-43.685998 v -0.79 l -0.542,-0.578 -22.512,-24.004 -0.592,-0.632 h -0.866 -13.76 l -2.614,-18.208 -0.146,-1.026 -0.926,-0.472 -11.75,-5.98 -0.532,-0.27 z m 5.65,56.514 8.662,-7.292 9.982,6.842 -1.562,9.938 -8.436,3.832 -6.032,-3.488 -2.614,-9.832 z" /><polygon
       style="fill:#ed1175"
       transform="matrix(2,0,0,2,-534.58422,-343.93172)"
       inkscape:export-ydpi="90"
       inkscape:export-xdpi="90"
       inkscape:export-filename="/home/davidphilipegil/Dropbox/projects/navitude/yappy_birds/COMMON/website/logo-3.png"
       id="polygon3520-8"
       points="186.477,180.205 193.507,180.787 188.638,184.66 187.492,186.538 194.411,187.473 187.359,191.324 169.364,238.102 174.82,240.514 172.258,246.473 147.65,235.59 150.213,229.631 154.919,231.713 163.185,214.025 153.381,186.371 148.184,186.371 148.184,179.879 162.792,180.022 170.122,199.183 173.572,191.801 172.975,185.924 178.172,180.93 181.565,180.197 184.858,181.824 " /><polygon
       style="fill:#047eaf"
       transform="matrix(2,0,0,2,-534.58422,-343.93172)"
       inkscape:export-ydpi="90"
       inkscape:export-xdpi="90"
       inkscape:export-filename="/home/davidphilipegil/Dropbox/projects/navitude/yappy_birds/COMMON/website/logo-3.png"
       id="polygon3524-6"
       points="459.744,215.845 451.488,209.054 449.224,211.774 464.788,224.882 460.849,234.902 452.652,238.43 437.83,237.379 436.758,222.796 446.627,222.982 437.108,214.934 437.571,206.724 446.519,196.899 454.28,197.203 465.264,206.815 " /><path
       style="fill:#141a3e"
       inkscape:connector-curvature="0"
       inkscape:export-ydpi="90"
       inkscape:export-xdpi="90"
       inkscape:export-filename="/home/davidphilipegil/Dropbox/projects/navitude/yappy_birds/COMMON/website/logo-3.png"
       id="path3526-4"
       d="m 358.87578,50.884282 14.708,0.576 21.064,18.436 -10,16.36 -16.388,-13.484 -5.802,6.968 31.34,26.395998 -7.46,18.982 -15.79,6.794 -28.54,-2.024 -2,-27.208 21.456,0.406 -20.804,-17.591998 0.876,-15.566 17.34,-19.044 z m -0.85,-2.036 -0.626,0.688 -17.34,19.046 -0.478,0.526 -0.04,0.708 -0.878,15.566 -0.054,0.996 0.762,0.644 16.508,13.957998 -15.83,-0.296 -2.192,-0.042 0.16,2.188 2,27.208 0.126,1.726 1.726,0.124 28.54,2.024 0.486,0.036 0.448,-0.192 15.788,-6.796 0.766,-0.33 0.304,-0.776 7.46,-18.982 0.528,-1.336 -1.098,-0.926 -29.82,-25.113998 3.258,-3.912 14.854,12.22 1.778,1.462 1.202,-1.962 10,-16.362 0.876,-1.438 -1.268,-1.11 -21.066,-18.434 -0.532,-0.466 -0.708,-0.028 -14.708,-0.578 -0.932,-0.04 z" /><polygon
       style="fill:#047eaf"
       transform="matrix(2,0,0,2,-534.58422,-343.93172)"
       inkscape:export-ydpi="90"
       inkscape:export-xdpi="90"
       inkscape:export-filename="/home/davidphilipegil/Dropbox/projects/navitude/yappy_birds/COMMON/website/logo-3.png"
       id="polygon3528-4"
       points="291.702,246.33 298.914,228.527 288.556,196.94 300.281,196.94 305.159,213.732 309.918,196.94 321.202,196.94 307.006,250.619 " /><path
       style="fill:#141a3e"
       inkscape:connector-curvature="0"
       inkscape:export-ydpi="90"
       inkscape:export-xdpi="90"
       inkscape:export-filename="/home/davidphilipegil/Dropbox/projects/navitude/yappy_birds/COMMON/website/logo-3.png"
       id="path3530-4"
       d="m 106.51778,50.948282 -27.797999,105.119998 -28.554,-8 14.142,-34.91 -20.402,-62.207998 h 21.32 l 10.518,36.208 10.266,-36.208 h 20.507999 z m 2.6,-2 h -2.6 -20.507999 -1.514 l -0.412,1.454 -8.364,29.504 -8.574,-29.516 -0.418,-1.442 h -1.502 -21.32 -2.762 l 0.862,2.624 20.174,61.513998 -13.868,34.23 -0.84,2.074 2.154,0.602 28.554,8 1.956,0.546 0.518,-1.96 27.797999,-105.119998 0.666,-2.51 z" /><path
       style="fill:#e84624"
       inkscape:connector-curvature="0"
       inkscape:export-ydpi="90"
       inkscape:export-xdpi="90"
       inkscape:export-filename="/home/davidphilipegil/Dropbox/projects/navitude/yappy_birds/COMMON/website/logo-3.png"
       id="path3532-3"
       d="m -130.96822,132.57828 v -5.542 l -6.952,5.232 -31.1,-12.828 V 74.692282 l 23.078,-24.608 h 16.318 l 9.452,7.426 v -7.426 h 20.486001 v 82.491998 h -31.282001 z m 0.962,-38.443998 8.51,-3.75 1.268,-11.038 -9.804,-8.252 -11.074,7.59 3.2,12.614 7.9,2.836 z" /><path
       style="fill:#141a3e"
       inkscape:connector-curvature="0"
       inkscape:export-ydpi="90"
       inkscape:export-xdpi="90"
       inkscape:export-filename="/home/davidphilipegil/Dropbox/projects/navitude/yappy_birds/COMMON/website/logo-3.png"
       id="path3522-2"
       d="m -237.21622,16.838282 27.526,0.268 15.26,39.888 8.014,-17.148 -1.172,-11.544 9.838,-9.454 6.168,-1.332 6.916,3.416 3.416,-3.416 11.084,0.916 -7.902,6.286 -3.182,5.214 12.334,1.666 -11.75,6.418 -36.464,94.787998 10.878,4.808 -4.336,10.082 -47.386,-20.96 4.336,-10.078 9.384,4.148 17.12,-36.63 -19.98,-56.359998 h -10.102 v -10.976 z m -2,-2.02 v 2.02 10.974 2 h 2 8.688 l 19.236,54.255998 -15.944,34.114 -7.592,-3.36 -1.848,-0.814 -0.798,1.856 -4.336,10.08 -0.782,1.818 1.81,0.802 47.386,20.958 1.848,0.818 0.798,-1.858 4.336,-10.082 0.782,-1.816 -1.81,-0.8 -9.138,-4.042 35.516,-92.321998 11.106,-6.064 5.35,-2.922 -6.04,-0.816 -9.3,-1.256 1.402,-2.298 7.624,-6.064 3.95,-3.144 -5.03,-0.416 -11.082,-0.916 -0.924,-0.076 -0.656,0.656 -2.402,2.402 -5.632,-2.782 -0.626,-0.31 -0.682,0.148 -6.166,1.334 -0.554,0.12 -0.41,0.392 -9.838,9.454 -0.702,0.674 0.098,0.97 1.116,10.996 -5.786,12.378 -13.574,-35.486 -0.486,-1.272 -1.362,-0.014 -27.526,-0.268 -2.02,-0.022 z" /><path
       style="fill:#141a3e"
       inkscape:connector-curvature="0"
       inkscape:export-ydpi="90"
       inkscape:export-xdpi="90"
       inkscape:export-filename="/home/davidphilipegil/Dropbox/projects/navitude/yappy_birds/COMMON/website/logo-3.png"
       id="path3534-5"
       d="m -129.97022,51.084282 10.798,8.486 v -8.486 h 18.486 l -0.002,80.493998 h -29.282 v -6.544 l -8.094,6.096 -29.956,-12.354 -0.002,-43.687998 22.514,-24.004 h 15.538 z m 0.002,44.126 9.398,-4.142 1.398,-12.138 -10.798,-9.09 -12.278,8.416 3.502,13.804 8.778,3.15 m 0.69,-46.126 h -0.692 -15.538 -0.868 l -0.592,0.632 -22.512,24.004 -0.542,0.578 v 0.79 l 0.002,43.687998 v 1.336 l 1.238,0.512 29.954,12.354 1.056,0.436 0.91,-0.686 4.892,-3.686 v 2.538 2 h 2 29.282 2.000001 v -2 l 0.002,-80.493998 v -2 h -2.000001 -18.486 -2 v 2 4.37 l -7.562,-5.942 -0.544,-0.43 z m -10.688,30.032 9.872,-6.766 8.812,7.418 -1.144,9.932 -7.618,3.358 -7.024,-2.522 -2.898,-11.42 z" /><polygon
       style="fill:#e4b922"
       transform="matrix(2,0,0,2,-534.58422,-343.93172)"
       inkscape:export-ydpi="90"
       inkscape:export-xdpi="90"
       inkscape:export-filename="/home/davidphilipegil/Dropbox/projects/navitude/yappy_birds/COMMON/website/logo-3.png"
       id="polygon3536-8"
       points="380.974,238.287 381.113,196.94 390.568,196.94 391.008,201.705 400.261,195.785 400.261,215.986 392.139,216.621 394.963,238.287 " /><path
       style="fill:#141a3e"
       inkscape:connector-curvature="0"
       inkscape:export-ydpi="90"
       inkscape:export-xdpi="90"
       inkscape:export-filename="/home/davidphilipegil/Dropbox/projects/navitude/yappy_birds/COMMON/website/logo-3.png"
       id="path3538-3"
       d="m 264.93778,49.466282 v 37.648 l -16.374,1.282 5.638,43.247998 h -25.836 l 0.27,-80.693998 h 17.004 l 0.946,10.256 18.352,-11.74 z m 2,-3.654 -3.078,1.968 -15.584,9.97 -0.642,-6.984 -0.168,-1.816 h -1.824 -17.004 -1.992 l -0.008,1.994 -0.27,80.695998 -0.006,2.004 h 2.006 25.836 2.278 l -0.292,-2.258 -5.366,-41.159998 14.272,-1.118 1.844,-0.144 v -1.85 -37.648 -3.654 z" /><polygon
       style="fill:#e84624"
       transform="matrix(2,0,0,2,-534.58422,-343.93172)"
       inkscape:export-ydpi="90"
       inkscape:export-xdpi="90"
       inkscape:export-filename="/home/davidphilipegil/Dropbox/projects/navitude/yappy_birds/COMMON/website/logo-3.png"
       id="polygon3540-9"
       points="363.632,238.287 367.734,198.021 378.604,198.021 378.604,238.287 " /><path
       style="fill:#141a3e"
       inkscape:connector-curvature="0"
       inkscape:export-ydpi="90"
       inkscape:export-xdpi="90"
       inkscape:export-filename="/home/davidphilipegil/Dropbox/projects/navitude/yappy_birds/COMMON/website/logo-3.png"
       id="path3542-6"
       d="m 221.62378,53.110282 v 78.533998 h -27.836 l 8,-78.533998 h 19.836 z m 2,-2 h -2 -19.836 -1.806 l -0.184,1.798 -8,78.533998 -0.224,2.202 h 2.214 27.836 2 v -2 -78.533998 -2 z" /><polygon
       style="fill:#e84624"
       transform="matrix(2,0,0,2,-534.58422,-343.93172)"
       inkscape:export-ydpi="90"
       inkscape:export-xdpi="90"
       inkscape:export-filename="/home/davidphilipegil/Dropbox/projects/navitude/yappy_birds/COMMON/website/logo-3.png"
       id="polygon3544-4"
       points="370.057,183.963 376.598,183.927 380.46,190.375 376.227,195.95 369.96,195.95 366.067,190.746 " /><path
       style="fill:#141a3e"
       inkscape:connector-curvature="0"
       inkscape:export-ydpi="90"
       inkscape:export-xdpi="90"
       inkscape:export-filename="/home/davidphilipegil/Dropbox/projects/navitude/yappy_birds/COMMON/website/logo-3.png"
       id="path3546-5"
       d="m 218.04578,24.924282 7.086,11.828 -7.762,10.216 h -11.536 l -7.086,-9.474 7.354,-12.502 11.944,-0.068 z m 1.13,-2.006 -1.14,0.006 -11.944,0.068 -1.136,0.006 -0.574,0.98 -7.356,12.502 -0.674,1.146 0.796,1.066 7.086,9.474 0.6,0.802 h 1.002 11.536 0.994 l 0.602,-0.79 7.758,-10.218 0.816,-1.076 -0.694,-1.16 -7.086,-11.828 -0.586,-0.978 z" /><polygon
       style="fill:#ffffff"
       transform="matrix(2,0,0,2,-534.58422,-343.93172)"
       inkscape:export-ydpi="90"
       inkscape:export-xdpi="90"
       inkscape:export-filename="/home/davidphilipegil/Dropbox/projects/navitude/yappy_birds/COMMON/website/logo-3.png"
       id="polygon3548-6"
       points="350.625,197.193 350.625,190.215 345.625,187.438 339.514,188.969 338.625,196.283 343.069,199.882 " /><polygon
       transform="matrix(2,0,0,2,-534.58422,-343.93172)"
       inkscape:export-ydpi="90"
       inkscape:export-xdpi="90"
       inkscape:export-filename="/home/davidphilipegil/Dropbox/projects/navitude/yappy_birds/COMMON/website/logo-3.png"
       id="polygon3550-9"
       points="348.25,195.425 348.25,191.5 345.438,189.938 342,190.799 341.5,194.913 344,196.938 " /><polygon
       style="fill:#ffffff"
       transform="matrix(2,0,0,2,-534.58422,-343.93172)"
       inkscape:export-ydpi="90"
       inkscape:export-xdpi="90"
       inkscape:export-filename="/home/davidphilipegil/Dropbox/projects/navitude/yappy_birds/COMMON/website/logo-3.png"
       id="polygon3552-1"
       points="230.167,192.25 230.59,188.143 227.465,186.407 224.334,186.759 223.09,189.974 226.167,193.334 " /><polygon
       style="fill:#ffffff"
       transform="matrix(2,0,0,2,-534.58422,-343.93172)"
       inkscape:export-ydpi="90"
       inkscape:export-xdpi="90"
       inkscape:export-filename="/home/davidphilipegil/Dropbox/projects/navitude/yappy_birds/COMMON/website/logo-3.png"
       id="polygon3554-3"
       points="267.962,189.324 265.783,186.118 262.617,186.403 260.288,189.017 262.164,192.654 265.33,192.919 " /><polygon
       style="fill:#ffffff"
       transform="matrix(2,0,0,2,-534.58422,-343.93172)"
       inkscape:export-ydpi="90"
       inkscape:export-xdpi="90"
       inkscape:export-filename="/home/davidphilipegil/Dropbox/projects/navitude/yappy_birds/COMMON/website/logo-3.png"
       id="polygon3556-8"
       points="183.931,187.472 184.824,184.492 182.226,182.268 178.928,182.934 177.917,186.123 180.555,188.841 " /><polygon
       style="fill:#ffffff"
       transform="matrix(2,0,0,2,-534.58422,-343.93172)"
       inkscape:export-ydpi="90"
       inkscape:export-xdpi="90"
       inkscape:export-filename="/home/davidphilipegil/Dropbox/projects/navitude/yappy_birds/COMMON/website/logo-3.png"
       id="polygon3558-2"
       points="434,185.691 431.375,183.163 428.25,183.163 425.992,187.238 428.649,190.239 432.75,189.344 " /><polygon
       transform="matrix(2,0,0,2,-534.58422,-343.93172)"
       inkscape:export-ydpi="90"
       inkscape:export-xdpi="90"
       inkscape:export-filename="/home/davidphilipegil/Dropbox/projects/navitude/yappy_birds/COMMON/website/logo-3.png"
       id="polygon3560-2"
       points="182.356,184.324 181.371,183.425 179.646,183.818 179.321,185.554 180.502,186.797 182.356,186.179 " /><polygon
       transform="matrix(2,0,0,2,-534.58422,-343.93172)"
       inkscape:export-ydpi="90"
       inkscape:export-xdpi="90"
       inkscape:export-filename="/home/davidphilipegil/Dropbox/projects/navitude/yappy_birds/COMMON/website/logo-3.png"
       id="polygon3562-3"
       points="226.25,191.129 228.25,190.667 228.583,189.005 227.652,187.595 225.667,188.073 225.167,189.87 " /><polygon
       transform="matrix(2,0,0,2,-534.58422,-343.93172)"
       inkscape:export-ydpi="90"
       inkscape:export-xdpi="90"
       inkscape:export-filename="/home/davidphilipegil/Dropbox/projects/navitude/yappy_birds/COMMON/website/logo-3.png"
       id="polygon3564-6"
       points="266.137,188.904 265.356,190.647 263.18,190.647 262.4,188.66 263.406,187.468 265.583,187.419 " /><polygon
       transform="matrix(2,0,0,2,-534.58422,-343.93172)"
       inkscape:export-ydpi="90"
       inkscape:export-xdpi="90"
       inkscape:export-filename="/home/davidphilipegil/Dropbox/projects/navitude/yappy_birds/COMMON/website/logo-3.png"
       id="polygon3566-0"
       points="430.932,184.875 431.875,186.691 430.932,188.5 429.25,188.5 428.141,187.122 429.125,184.875 " /></g></svg>